# xmcd
#
# Track frame offsets: 
#        150
#        4218
#        43578
#        73681
#        92403
#        113970
#        140666
#        166071
#        194012
#
# Disc length: 2956 seconds
#
# Revision: 1
# Processed by: cddbd v1.5.2PL0 Copyright (c) Steve Scherf et al.
# Submitted via: ExactAudioCopy v0.95b4
#
DISCID=790b8a09
DTITLE=The Classical Jazz Quartet - Play Rachmaninov
DYEAR=2006
DGENRE=Jazz
TTITLE0=Movement I Part I
TTITLE1=Movement I Part II
TTITLE2=Movement I Part III
TTITLE3=Movement I Part IV
TTITLE4=Movement I Part V
TTITLE5=Movement II Part I
TTITLE6=Movement II Part II [Cadenza Version]
TTITLE7=Movement III Part I
TTITLE8=Movement III Part II
EXTD=YEAR: 2006
EXTT0=
EXTT1=
EXTT2=
EXTT3=
EXTT4=
EXTT5=
EXTT6=
EXTT7=
EXTT8=
PLAYORDER=
